<svg width="24" height="24" viewBox="0 0 24 24" fill="none" xmlns="http://www.w3.org/2000/svg">
<path fill-rule="evenodd" clip-rule="evenodd" d="M13.7881 3.80399C13.3321 1.93199 10.6681 1.93199 10.2121 3.80399C10.144 4.08529 10.0105 4.34654 9.82236 4.56649C9.63424 4.78643 9.39685 4.95885 9.1295 5.06972C8.86216 5.18058 8.57242 5.22677 8.28385 5.2045C7.99529 5.18224 7.71606 5.09216 7.46889 4.94159C5.82249 3.93839 3.93849 5.82239 4.94169 7.46879C5.58969 8.53199 5.01489 9.91919 3.80529 10.2132C1.93209 10.668 1.93209 13.3332 3.80529 13.7868C4.08666 13.855 4.34796 13.9886 4.5679 14.1769C4.78785 14.3651 4.96022 14.6027 5.07098 14.8702C5.18174 15.1377 5.22776 15.4275 5.20529 15.7162C5.18283 16.0048 5.09251 16.2841 4.94169 16.5312C3.93849 18.1776 5.82249 20.0616 7.46889 19.0584C7.71602 18.9076 7.99527 18.8173 8.28391 18.7948C8.57255 18.7723 8.86242 18.8183 9.12991 18.9291C9.39739 19.0399 9.63494 19.2122 9.8232 19.4322C10.0115 19.6521 10.1451 19.9134 10.2133 20.1948C10.6681 22.068 13.3333 22.068 13.7869 20.1948C13.8553 19.9136 13.9891 19.6524 14.1774 19.4327C14.3657 19.2129 14.6032 19.0406 14.8706 18.9299C15.138 18.8191 15.4278 18.7731 15.7163 18.7954C16.0049 18.8177 16.2841 18.9078 16.5313 19.0584C18.1777 20.0616 20.0617 18.1776 19.0585 16.5312C18.9079 16.284 18.8178 16.0048 18.7955 15.7162C18.7732 15.4277 18.8192 15.1379 18.93 14.8705C19.0407 14.6031 19.213 14.3656 19.4328 14.1773C19.6525 13.989 19.9137 13.8552 20.1949 13.7868C22.0681 13.332 22.0681 10.6668 20.1949 10.2132C19.9135 10.145 19.6522 10.0114 19.4323 9.82311C19.2123 9.63484 19.04 9.3973 18.9292 9.12981C18.8184 8.86232 18.7724 8.57245 18.7949 8.28381C18.8174 7.99517 18.9077 7.71592 19.0585 7.46879C20.0617 5.82239 18.1777 3.93839 16.5313 4.94159C16.2842 5.09241 16.0049 5.18273 15.7163 5.2052C15.4276 5.22766 15.1378 5.18164 14.8703 5.07088C14.6028 4.96012 14.3652 4.78775 14.177 4.56781C13.9887 4.34786 13.8551 4.08657 13.7869 3.80519L13.7881 3.80399ZM12.0001 15.6C12.9549 15.6 13.8705 15.2207 14.5457 14.5456C15.2208 13.8704 15.6001 12.9548 15.6001 12C15.6001 11.0452 15.2208 10.1295 14.5457 9.45441C13.8705 8.77928 12.9549 8.39999 12.0001 8.39999C11.0453 8.39999 10.1296 8.77928 9.45451 9.45441C8.77938 10.1295 8.40009 11.0452 8.40009 12C8.40009 12.9548 8.77938 13.8704 9.45451 14.5456C10.1296 15.2207 11.0453 15.6 12.0001 15.6Z" fill="#A04BAB"/>
</svg>
