<svg width="24" height="24" viewBox="0 0 24 24" fill="none" xmlns="http://www.w3.org/2000/svg">
<path d="M10.7999 5.7648C9.49156 5.12779 8.05508 4.79781 6.5999 4.8C5.0939 4.8 3.6683 5.148 2.3999 5.7648V17.7648C3.70826 17.1278 5.14473 16.7979 6.5999 16.8C8.6027 16.8 10.4615 17.412 11.9999 18.462C13.5912 17.3763 15.4735 16.7969 17.3999 16.8C18.9059 16.8 20.3315 17.148 21.5999 17.7648V5.7648C20.2916 5.12779 18.8551 4.79781 17.3999 4.8C15.8939 4.8 14.4683 5.148 13.1999 5.7648V14.4C13.1999 14.7183 13.0735 15.0235 12.8484 15.2485C12.6234 15.4736 12.3182 15.6 11.9999 15.6C11.6816 15.6 11.3764 15.4736 11.1514 15.2485C10.9263 15.0235 10.7999 14.7183 10.7999 14.4V5.7648Z" fill="#A04BAB"/>
</svg>
