<svg width="24" height="24" viewBox="0 0 24 24" fill="none" xmlns="http://www.w3.org/2000/svg">
<path fill-rule="evenodd" clip-rule="evenodd" d="M3.6001 7.20001C3.6001 6.24523 3.97938 5.32955 4.65451 4.65442C5.32964 3.97929 6.24532 3.60001 7.2001 3.60001H19.2001C19.423 3.60001 19.6414 3.66206 19.831 3.77923C20.0205 3.89639 20.1737 4.06402 20.2734 4.26335C20.3731 4.46268 20.4153 4.68582 20.3953 4.90777C20.3752 5.12973 20.2938 5.34172 20.1601 5.52001L17.1001 9.60001L20.1601 13.68C20.2938 13.8583 20.3752 14.0703 20.3953 14.2922C20.4153 14.5142 20.3731 14.7373 20.2734 14.9367C20.1737 15.136 20.0205 15.3036 19.831 15.4208C19.6414 15.5379 19.423 15.6 19.2001 15.6H7.2001C6.88184 15.6 6.57661 15.7264 6.35157 15.9515C6.12653 16.1765 6.0001 16.4817 6.0001 16.8V20.4C6.0001 20.7183 5.87367 21.0235 5.64863 21.2485C5.42358 21.4736 5.11836 21.6 4.8001 21.6C4.48184 21.6 4.17661 21.4736 3.95157 21.2485C3.72653 21.0235 3.6001 20.7183 3.6001 20.4V7.20001Z" fill="#A04BAB"/>
</svg>
