<svg width="24" height="19" viewBox="0 0 24 19" fill="none" xmlns="http://www.w3.org/2000/svg">
<path d="M7.80006 13.0625C7.71044 13.0625 7.62081 13.0755 7.53531 13.1029C7.04931 13.2592 6.53819 13.3594 6.00006 13.3594C5.46194 13.3594 4.95081 13.2592 4.46444 13.1029C4.37894 13.0755 4.28969 13.0625 4.20006 13.0625C1.87281 13.0625 -0.0123144 14.9358 6.05804e-05 17.2418C0.00531058 18.2162 0.814935 19 1.80006 19H10.2001C11.1852 19 11.9948 18.2162 12.0001 17.2418C12.0124 14.9358 10.1273 13.0625 7.80006 13.0625ZM6.00006 11.875C7.98831 11.875 9.60006 10.28 9.60006 8.3125C9.60006 6.34496 7.98831 4.75 6.00006 4.75C4.01181 4.75 2.40006 6.34496 2.40006 8.3125C2.40006 10.28 4.01181 11.875 6.00006 11.875ZM22.2001 0H7.80006C6.80744 0 6.00006 0.825684 6.00006 1.84025V3.5625C6.87831 3.5625 7.69131 3.8141 8.40006 4.22305V2.375H21.6001V13.0625H19.2001V10.6875H14.4001V13.0625H11.5411C12.2573 13.6819 12.7831 14.4997 13.0294 15.4375H22.2001C23.1927 15.4375 24.0001 14.6118 24.0001 13.5972V1.84025C24.0001 0.825684 23.1927 0 22.2001 0Z" fill="#A04BAB"/>
</svg>
