<svg width="24" height="24" viewBox="0 0 24 24" fill="none" xmlns="http://www.w3.org/2000/svg">
<rect width="24" height="24" rx="5" fill="#E7E8FF"/>
<path d="M14 12C14 12.5304 13.7893 13.0391 13.4142 13.4142C13.0391 13.7893 12.5304 14 12 14C11.4696 14 10.9609 13.7893 10.5858 13.4142C10.2107 13.0391 10 12.5304 10 12C10 11.4696 10.2107 10.9609 10.5858 10.5858C10.9609 10.2107 11.4696 10 12 10C12.5304 10 13.0391 10.2107 13.4142 10.5858C13.7893 10.9609 14 11.4696 14 12Z" stroke="#422AF6" stroke-width="1.5" stroke-linecap="round" stroke-linejoin="round"/>
<path d="M4 12C5.13488 8.52257 8.51189 6 12.5 6C16.489 6 19.8651 8.52257 21 12C19.8651 15.4774 16.489 18 12.5 18C8.51189 18 5.13488 15.4774 4 12Z" stroke="#422AF6" stroke-width="1.5" stroke-linecap="round" stroke-linejoin="round"/>
</svg>
