<svg width="24" height="24" viewBox="0 0 24 24" fill="none" xmlns="http://www.w3.org/2000/svg">
<path fill-rule="evenodd" clip-rule="evenodd" d="M4.7999 4.8C4.16338 4.8 3.55293 5.05286 3.10285 5.50295C2.65276 5.95303 2.3999 6.56348 2.3999 7.2V12C2.3999 12.6365 2.65276 13.247 3.10285 13.6971C3.55293 14.1471 4.16338 14.4 4.7999 14.4V7.2H16.7999C16.7999 6.56348 16.547 5.95303 16.097 5.50295C15.6469 5.05286 15.0364 4.8 14.3999 4.8H4.7999ZM7.1999 12C7.1999 11.3635 7.45276 10.753 7.90285 10.3029C8.35293 9.85286 8.96338 9.6 9.5999 9.6H19.1999C19.8364 9.6 20.4469 9.85286 20.897 10.3029C21.347 10.753 21.5999 11.3635 21.5999 12V16.8C21.5999 17.4365 21.347 18.047 20.897 18.4971C20.4469 18.9471 19.8364 19.2 19.1999 19.2H9.5999C8.96338 19.2 8.35293 18.9471 7.90285 18.4971C7.45276 18.047 7.1999 17.4365 7.1999 16.8V12ZM14.3999 16.8C15.0364 16.8 15.6469 16.5471 16.097 16.0971C16.547 15.647 16.7999 15.0365 16.7999 14.4C16.7999 13.7635 16.547 13.153 16.097 12.7029C15.6469 12.2529 15.0364 12 14.3999 12C13.7634 12 13.1529 12.2529 12.7028 12.7029C12.2528 13.153 11.9999 13.7635 11.9999 14.4C11.9999 15.0365 12.2528 15.647 12.7028 16.0971C13.1529 16.5471 13.7634 16.8 14.3999 16.8Z" fill="#A04BAB"/>
</svg>
