<svg width="14" height="16" viewBox="0 0 14 16" fill="none" xmlns="http://www.w3.org/2000/svg">
<path d="M12.3871 3.98566L11.7159 13.7341C11.6881 14.1392 11.5133 14.5183 11.2267 14.7951C10.9401 15.0719 10.563 15.2258 10.1714 15.2258H3.76413C3.3725 15.2258 2.99541 15.0719 2.70881 14.7951C2.42222 14.5183 2.24742 14.1392 2.21961 13.7341L1.54839 3.98566M5.41935 7.19713V12.0143M8.51613 7.19713V12.0143M9.29032 3.98566V1.57706C9.29032 1.36413 9.20876 1.15991 9.06357 1.00935C8.91838 0.858781 8.72146 0.774194 8.51613 0.774194H5.41935C5.21403 0.774194 5.01711 0.858781 4.87192 1.00935C4.72673 1.15991 4.64516 1.36413 4.64516 1.57706V3.98566M0.774194 3.98566H13.1613" stroke="#F53535" stroke-width="1.5" stroke-linecap="round" stroke-linejoin="round"/>
</svg>
