<svg width="24" height="24" viewBox="0 0 24 24" fill="none" xmlns="http://www.w3.org/2000/svg">
<path fill-rule="evenodd" clip-rule="evenodd" d="M4.8001 4.8C4.8001 4.16348 5.05295 3.55303 5.50304 3.10294C5.95313 2.65286 6.56358 2.4 7.2001 2.4H16.8001C17.4366 2.4 18.0471 2.65286 18.4972 3.10294C18.9472 3.55303 19.2001 4.16348 19.2001 4.8V19.2C19.5184 19.2 19.8236 19.3264 20.0486 19.5515C20.2737 19.7765 20.4001 20.0817 20.4001 20.4C20.4001 20.7183 20.2737 21.0235 20.0486 21.2485C19.8236 21.4736 19.5184 21.6 19.2001 21.6H15.6001C15.2818 21.6 14.9766 21.4736 14.7516 21.2485C14.5265 21.0235 14.4001 20.7183 14.4001 20.4V18C14.4001 17.6817 14.2737 17.3765 14.0486 17.1515C13.8236 16.9264 13.5184 16.8 13.2001 16.8H10.8001C10.4818 16.8 10.1766 16.9264 9.95157 17.1515C9.72653 17.3765 9.6001 17.6817 9.6001 18V20.4C9.6001 20.7183 9.47367 21.0235 9.24863 21.2485C9.02358 21.4736 8.71836 21.6 8.4001 21.6H4.8001C4.48184 21.6 4.17661 21.4736 3.95157 21.2485C3.72653 21.0235 3.6001 20.7183 3.6001 20.4C3.6001 20.0817 3.72653 19.7765 3.95157 19.5515C4.17661 19.3264 4.48184 19.2 4.8001 19.2V4.8ZM8.4001 6H10.8001V8.4H8.4001V6ZM10.8001 10.8H8.4001V13.2H10.8001V10.8ZM13.2001 6H15.6001V8.4H13.2001V6ZM15.6001 10.8H13.2001V13.2H15.6001V10.8Z" fill="#A04BAB"/>
</svg>
