<svg width="14" height="14" viewBox="0 0 14 14" fill="none" xmlns="http://www.w3.org/2000/svg">
<path d="M5.89456 2.25768H2.23972C1.85199 2.25768 1.48014 2.41171 1.20597 2.68587C0.931803 2.96004 0.777778 3.33189 0.777778 3.71962V11.7603C0.777778 12.148 0.931803 12.5199 1.20597 12.794C1.48014 13.0682 1.85199 13.2222 2.23972 13.2222H10.2804C10.6681 13.2222 11.04 13.0682 11.3141 12.794C11.5883 12.5199 11.7423 12.148 11.7423 11.7603V8.10544M10.7087 1.22409C10.8436 1.08446 11.0049 0.973087 11.1833 0.896468C11.3616 0.819849 11.5535 0.77952 11.7476 0.777833C11.9417 0.776146 12.1342 0.813136 12.3139 0.886643C12.4935 0.960151 12.6568 1.0687 12.794 1.20597C12.9313 1.34324 13.0398 1.50646 13.1134 1.68613C13.1869 1.8658 13.2239 2.0583 13.2222 2.25242C13.2205 2.44654 13.1802 2.63837 13.1035 2.81673C13.0269 2.9951 12.9155 3.15641 12.7759 3.29127L6.49981 9.56738H4.43262V7.50019L10.7087 1.22409Z" stroke="#1FC519" stroke-width="1.5" stroke-linecap="round" stroke-linejoin="round"/>
</svg>
