<svg width="44" height="44" viewBox="0 0 44 44" fill="none" xmlns="http://www.w3.org/2000/svg">
<rect x="0.5" y="0.5" width="43" height="43" rx="9.5" fill="white" stroke="#E9E9E9"/>
<path fill-rule="evenodd" clip-rule="evenodd" d="M19.1358 27.8333H15.6148C14.9991 27.8333 14.5 27.3342 14.5 26.7186V25.9911C14.5 25.5699 14.6673 25.166 14.9651 24.8682C15.7345 24.0989 16.1667 23.0554 16.1667 21.9674V19.5C16.1667 16.2783 18.7783 13.6667 22 13.6667C25.2217 13.6667 27.8333 16.2783 27.8333 19.5V21.9674C27.8333 23.0554 28.2656 24.0989 29.0349 24.8682C29.3327 25.166 29.5 25.5699 29.5 25.9911V26.7186C29.5 27.3342 29.0009 27.8333 28.3852 27.8333H24.8642C24.8642 28.1304 24.8545 28.6969 24.5557 29.2394C24.0612 30.1372 23.103 30.75 22 30.75C20.8969 30.75 19.9388 30.1372 19.4443 29.2394C19.1454 28.6969 19.1358 28.1304 19.1358 27.8333ZM28.151 25.7521C28.2144 25.8155 28.25 25.9015 28.25 25.9911V26.5833H15.75V25.9911C15.75 25.9015 15.7856 25.8155 15.849 25.7521C16.8528 24.7483 17.4167 23.3869 17.4167 21.9674V19.5C17.4167 16.9687 19.4687 14.9167 22 14.9167C24.5313 14.9167 26.5833 16.9687 26.5833 19.5V21.9674C26.5833 23.3869 27.1472 24.7483 28.151 25.7521ZM23.6142 27.8333H20.3858C20.3858 28.11 20.4057 28.394 20.5392 28.6363C20.6322 28.8054 20.7539 28.9566 20.8976 29.0833C21.1913 29.3427 21.5773 29.5 22 29.5C22.4227 29.5 22.8086 29.3427 23.1024 29.0833C23.2461 28.9566 23.3677 28.8054 23.4608 28.6363C23.5943 28.394 23.6142 28.11 23.6142 27.8333Z" fill="#333333"/>
<circle cx="27" cy="16.1667" r="2.83334" fill="#D34645" stroke="white" stroke-width="0.666676"/>
</svg>
