<svg width="45" height="46" viewBox="0 0 45 46" fill="none" xmlns="http://www.w3.org/2000/svg">
<circle cx="22.5" cy="22.7857" r="22.5" fill="#FEF7FF"/>
<path d="M34.5465 14.8963L23.2965 11.1463C23.104 11.0821 22.896 11.0821 22.7035 11.1463L11.4535 14.8963C11.2668 14.9585 11.1045 15.0779 10.9894 15.2375C10.8744 15.3972 10.8125 15.589 10.8125 15.7857V25.1607C10.8125 25.4094 10.9113 25.6478 11.0871 25.8236C11.2629 25.9995 11.5014 26.0982 11.75 26.0982C11.9986 26.0982 12.2371 25.9995 12.4129 25.8236C12.5887 25.6478 12.6875 25.4094 12.6875 25.1607V17.0865L16.6238 18.3978C15.578 20.0875 15.2454 22.123 15.6991 24.0576C16.1529 25.9923 17.3558 27.6677 19.0437 28.7162C16.9344 29.5435 15.1109 31.04 13.7773 33.0861C13.708 33.1892 13.6598 33.305 13.6356 33.4269C13.6114 33.5488 13.6117 33.6742 13.6364 33.796C13.6611 33.9177 13.7098 34.0334 13.7796 34.1362C13.8494 34.2389 13.9389 34.3268 14.043 34.3947C14.1471 34.4626 14.2636 34.5091 14.3858 34.5315C14.508 34.554 14.6334 34.5519 14.7548 34.5255C14.8762 34.499 14.9911 34.4487 15.0929 34.3774C15.1947 34.3061 15.2813 34.2154 15.3477 34.1103C17.1137 31.401 19.9027 29.8482 23 29.8482C26.0973 29.8482 28.8863 31.401 30.6523 34.1103C30.7898 34.3147 31.0023 34.4567 31.2436 34.5058C31.485 34.5548 31.736 34.5068 31.9423 34.3722C32.1486 34.2377 32.2937 34.0273 32.3462 33.7866C32.3986 33.546 32.3543 33.2943 32.2227 33.0861C30.8891 31.04 29.0586 29.5435 26.9562 28.7162C28.6426 27.6678 29.8444 25.9934 30.298 24.0602C30.7517 22.127 30.4201 20.0928 29.3762 18.4037L34.5465 16.681C34.7332 16.6188 34.8956 16.4995 35.0107 16.3398C35.1258 16.1802 35.1877 15.9884 35.1877 15.7916C35.1877 15.5948 35.1258 15.403 35.0107 15.2433C34.8956 15.0837 34.7332 14.9643 34.5465 14.9021V14.8963ZM28.625 22.3482C28.6253 23.2375 28.4147 24.1142 28.0105 24.9063C27.6063 25.6985 27.0201 26.3835 26.2999 26.9052C25.5797 27.4269 24.7461 27.7704 23.8675 27.9075C22.9888 28.0447 22.0902 27.9715 21.2453 27.6941C20.4004 27.4167 19.6333 26.9429 19.0069 26.3117C18.3806 25.6804 17.9129 24.9096 17.6421 24.0625C17.3713 23.2155 17.3052 22.3163 17.4493 21.4387C17.5933 20.5612 17.9434 19.7303 18.4707 19.0142L22.7035 20.4205C22.896 20.4846 23.104 20.4846 23.2965 20.4205L27.5293 19.0142C28.2415 19.9799 28.6256 21.1483 28.625 22.3482Z" fill="#A04BAB"/>
</svg>
